<svg width="460" height="263" viewBox="0 0 460 263" fill="none" xmlns="http://www.w3.org/2000/svg">
<rect width="460" height="263" fill="#E5E5E5"/>
<path d="M460 0H0V263H460V0Z" fill="#EEEEEE"/>
<path d="M133.84 182.662C132.232 182.2 131.06 181.633 130.324 180.963C129.595 180.286 129.23 179.452 129.23 178.463C129.23 177.343 129.676 176.419 130.568 175.689C131.467 174.954 132.632 174.586 134.064 174.586C135.041 174.586 135.91 174.775 136.672 175.152C137.44 175.53 138.033 176.051 138.449 176.715C138.872 177.379 139.084 178.105 139.084 178.893H137.199C137.199 178.033 136.926 177.359 136.379 176.871C135.832 176.376 135.061 176.129 134.064 176.129C133.14 176.129 132.417 176.334 131.896 176.744C131.382 177.148 131.125 177.711 131.125 178.434C131.125 179.013 131.369 179.505 131.857 179.908C132.352 180.305 133.189 180.67 134.367 181.002C135.552 181.334 136.477 181.702 137.141 182.105C137.811 182.503 138.306 182.968 138.625 183.502C138.951 184.036 139.113 184.664 139.113 185.387C139.113 186.539 138.664 187.464 137.766 188.16C136.867 188.85 135.666 189.195 134.162 189.195C133.186 189.195 132.274 189.01 131.428 188.639C130.581 188.261 129.927 187.747 129.465 187.096C129.009 186.445 128.781 185.706 128.781 184.879H130.666C130.666 185.738 130.982 186.419 131.613 186.92C132.251 187.415 133.101 187.662 134.162 187.662C135.152 187.662 135.91 187.46 136.438 187.057C136.965 186.653 137.229 186.103 137.229 185.406C137.229 184.71 136.984 184.173 136.496 183.795C136.008 183.411 135.122 183.033 133.84 182.662ZM145.627 189.195C144.195 189.195 143.029 188.727 142.131 187.789C141.232 186.845 140.783 185.585 140.783 184.01V183.678C140.783 182.63 140.982 181.695 141.379 180.875C141.783 180.048 142.342 179.404 143.059 178.941C143.781 178.473 144.562 178.238 145.402 178.238C146.776 178.238 147.844 178.691 148.605 179.596C149.367 180.501 149.748 181.796 149.748 183.482V184.234H142.59C142.616 185.276 142.919 186.119 143.498 186.764C144.084 187.402 144.826 187.721 145.725 187.721C146.363 187.721 146.903 187.59 147.346 187.33C147.788 187.07 148.176 186.725 148.508 186.295L149.611 187.154C148.726 188.515 147.398 189.195 145.627 189.195ZM145.402 179.723C144.673 179.723 144.061 179.99 143.566 180.523C143.072 181.051 142.766 181.793 142.648 182.75H147.941V182.613C147.889 181.695 147.642 180.986 147.199 180.484C146.757 179.977 146.158 179.723 145.402 179.723ZM158.371 189C158.267 188.792 158.182 188.421 158.117 187.887C157.277 188.759 156.275 189.195 155.109 189.195C154.068 189.195 153.212 188.902 152.541 188.316C151.877 187.724 151.545 186.975 151.545 186.07C151.545 184.97 151.962 184.117 152.795 183.512C153.635 182.9 154.813 182.594 156.33 182.594H158.088V181.764C158.088 181.132 157.899 180.631 157.521 180.26C157.144 179.882 156.587 179.693 155.852 179.693C155.207 179.693 154.667 179.856 154.23 180.182C153.794 180.507 153.576 180.901 153.576 181.363H151.76C151.76 180.836 151.945 180.328 152.316 179.84C152.694 179.345 153.202 178.954 153.84 178.668C154.484 178.382 155.191 178.238 155.959 178.238C157.176 178.238 158.13 178.544 158.82 179.156C159.51 179.762 159.868 180.598 159.895 181.666V186.529C159.895 187.499 160.018 188.271 160.266 188.844V189H158.371ZM155.373 187.623C155.939 187.623 156.477 187.477 156.984 187.184C157.492 186.891 157.86 186.51 158.088 186.041V183.873H156.672C154.458 183.873 153.352 184.521 153.352 185.816C153.352 186.383 153.54 186.826 153.918 187.145C154.296 187.464 154.781 187.623 155.373 187.623ZM167.834 180.055C167.561 180.009 167.264 179.986 166.945 179.986C165.76 179.986 164.956 180.491 164.533 181.5V189H162.727V178.434H164.484L164.514 179.654C165.106 178.71 165.946 178.238 167.033 178.238C167.385 178.238 167.652 178.284 167.834 178.375V180.055ZM173.547 187.721C174.191 187.721 174.755 187.525 175.236 187.135C175.718 186.744 175.985 186.256 176.037 185.67H177.746C177.714 186.275 177.505 186.852 177.121 187.398C176.737 187.945 176.223 188.382 175.578 188.707C174.94 189.033 174.263 189.195 173.547 189.195C172.108 189.195 170.962 188.717 170.109 187.76C169.263 186.796 168.84 185.481 168.84 183.814V183.512C168.84 182.483 169.029 181.568 169.406 180.768C169.784 179.967 170.324 179.345 171.027 178.902C171.737 178.46 172.574 178.238 173.537 178.238C174.722 178.238 175.705 178.593 176.486 179.303C177.274 180.012 177.694 180.934 177.746 182.066H176.037C175.985 181.383 175.725 180.823 175.256 180.387C174.794 179.944 174.221 179.723 173.537 179.723C172.619 179.723 171.906 180.055 171.398 180.719C170.897 181.376 170.646 182.33 170.646 183.58V183.922C170.646 185.139 170.897 186.077 171.398 186.734C171.9 187.392 172.616 187.721 173.547 187.721ZM181.584 179.713C182.385 178.73 183.426 178.238 184.709 178.238C186.942 178.238 188.068 179.498 188.088 182.018V189H186.281V182.008C186.275 181.246 186.099 180.683 185.754 180.318C185.415 179.954 184.885 179.771 184.162 179.771C183.576 179.771 183.062 179.928 182.619 180.24C182.176 180.553 181.831 180.963 181.584 181.471V189H179.777V174H181.584V179.713Z" fill="white" fill-opacity="0.68"/>
<g filter="url(#filter0_dd)">
<path fill-rule="evenodd" clip-rule="evenodd" d="M74 74C72.8954 74 72 74.8954 72 76V120C72 121.105 72.8954 122 74 122H414C415.105 122 416 121.105 416 120V76C416 74.8954 415.105 74 414 74H74Z" fill="#FAFAFA"/>
</g>
<path fill-rule="evenodd" clip-rule="evenodd" d="M382.99 97L382.999 91C382.999 89.342 381.657 88 380 88C378.344 88 377 89.342 377 91V97C377 98.656 378.344 100 380 100C381.657 100 382.99 98.656 382.99 97ZM385.299 97C385.299 100 382.762 102.1 380 102.1C377.239 102.1 374.7 100 374.7 97H373C373 100.415 375.719 103.233 379 103.718V107H381V103.718C384.279 103.233 387 100.415 387 97H385.299Z" fill="black" fill-opacity="0.6"/>
<path d="M95.5 100H94.71L94.43 99.73C95.41 98.59 96 97.11 96 95.5C96 91.91 93.09 89 89.5 89C85.91 89 83 91.91 83 95.5C83 99.09 85.91 102 89.5 102C91.11 102 92.59 101.41 93.73 100.43L94 100.71V101.5L99 106.49L100.49 105L95.5 100ZM89.5 100C87.01 100 85 97.99 85 95.5C85 93.01 87.01 91 89.5 91C91.99 91 94 93.01 94 95.5C94 97.99 91.99 100 89.5 100Z" fill="black" fill-opacity="0.54"/>
<path d="M133.84 98.6621C132.232 98.1999 131.06 97.6335 130.324 96.9629C129.595 96.2858 129.23 95.4525 129.23 94.4629C129.23 93.3431 129.676 92.4186 130.568 91.6895C131.467 90.9538 132.632 90.5859 134.064 90.5859C135.041 90.5859 135.91 90.7747 136.672 91.1523C137.44 91.5299 138.033 92.0508 138.449 92.7148C138.872 93.3789 139.084 94.1048 139.084 94.8926H137.199C137.199 94.0332 136.926 93.3594 136.379 92.8711C135.832 92.3763 135.061 92.1289 134.064 92.1289C133.14 92.1289 132.417 92.334 131.896 92.7441C131.382 93.1478 131.125 93.7109 131.125 94.4336C131.125 95.013 131.369 95.5046 131.857 95.9082C132.352 96.3053 133.189 96.6699 134.367 97.002C135.552 97.334 136.477 97.7018 137.141 98.1055C137.811 98.5026 138.306 98.9681 138.625 99.502C138.951 100.036 139.113 100.664 139.113 101.387C139.113 102.539 138.664 103.464 137.766 104.16C136.867 104.85 135.666 105.195 134.162 105.195C133.186 105.195 132.274 105.01 131.428 104.639C130.581 104.261 129.927 103.747 129.465 103.096C129.009 102.445 128.781 101.706 128.781 100.879H130.666C130.666 101.738 130.982 102.419 131.613 102.92C132.251 103.415 133.101 103.662 134.162 103.662C135.152 103.662 135.91 103.46 136.438 103.057C136.965 102.653 137.229 102.103 137.229 101.406C137.229 100.71 136.984 100.173 136.496 99.7949C136.008 99.4108 135.122 99.0332 133.84 98.6621ZM145.627 105.195C144.195 105.195 143.029 104.727 142.131 103.789C141.232 102.845 140.783 101.585 140.783 100.01V99.6777C140.783 98.6296 140.982 97.6953 141.379 96.875C141.783 96.0482 142.342 95.4036 143.059 94.9414C143.781 94.4727 144.562 94.2383 145.402 94.2383C146.776 94.2383 147.844 94.6908 148.605 95.5957C149.367 96.5007 149.748 97.7962 149.748 99.4824V100.234H142.59C142.616 101.276 142.919 102.119 143.498 102.764C144.084 103.402 144.826 103.721 145.725 103.721C146.363 103.721 146.903 103.59 147.346 103.33C147.788 103.07 148.176 102.725 148.508 102.295L149.611 103.154C148.726 104.515 147.398 105.195 145.627 105.195ZM145.402 95.7227C144.673 95.7227 144.061 95.9896 143.566 96.5234C143.072 97.0508 142.766 97.793 142.648 98.75H147.941V98.6133C147.889 97.6953 147.642 96.9857 147.199 96.4844C146.757 95.9766 146.158 95.7227 145.402 95.7227ZM158.371 105C158.267 104.792 158.182 104.421 158.117 103.887C157.277 104.759 156.275 105.195 155.109 105.195C154.068 105.195 153.212 104.902 152.541 104.316C151.877 103.724 151.545 102.975 151.545 102.07C151.545 100.97 151.962 100.117 152.795 99.5117C153.635 98.8997 154.813 98.5938 156.33 98.5938H158.088V97.7637C158.088 97.1322 157.899 96.6309 157.521 96.2598C157.144 95.8822 156.587 95.6934 155.852 95.6934C155.207 95.6934 154.667 95.8561 154.23 96.1816C153.794 96.5072 153.576 96.901 153.576 97.3633H151.76C151.76 96.8359 151.945 96.3281 152.316 95.8398C152.694 95.3451 153.202 94.9544 153.84 94.668C154.484 94.3815 155.191 94.2383 155.959 94.2383C157.176 94.2383 158.13 94.5443 158.82 95.1562C159.51 95.7617 159.868 96.5983 159.895 97.666V102.529C159.895 103.499 160.018 104.271 160.266 104.844V105H158.371ZM155.373 103.623C155.939 103.623 156.477 103.477 156.984 103.184C157.492 102.891 157.86 102.51 158.088 102.041V99.873H156.672C154.458 99.873 153.352 100.521 153.352 101.816C153.352 102.383 153.54 102.826 153.918 103.145C154.296 103.464 154.781 103.623 155.373 103.623ZM167.834 96.0547C167.561 96.0091 167.264 95.9863 166.945 95.9863C165.76 95.9863 164.956 96.4909 164.533 97.5V105H162.727V94.4336H164.484L164.514 95.6543C165.106 94.7103 165.946 94.2383 167.033 94.2383C167.385 94.2383 167.652 94.2839 167.834 94.375V96.0547ZM173.547 103.721C174.191 103.721 174.755 103.525 175.236 103.135C175.718 102.744 175.985 102.256 176.037 101.67H177.746C177.714 102.275 177.505 102.852 177.121 103.398C176.737 103.945 176.223 104.382 175.578 104.707C174.94 105.033 174.263 105.195 173.547 105.195C172.108 105.195 170.962 104.717 170.109 103.76C169.263 102.796 168.84 101.481 168.84 99.8145V99.5117C168.84 98.4831 169.029 97.5684 169.406 96.7676C169.784 95.9668 170.324 95.3451 171.027 94.9023C171.737 94.4596 172.574 94.2383 173.537 94.2383C174.722 94.2383 175.705 94.5931 176.486 95.3027C177.274 96.0124 177.694 96.9336 177.746 98.0664H176.037C175.985 97.3828 175.725 96.8229 175.256 96.3867C174.794 95.944 174.221 95.7227 173.537 95.7227C172.619 95.7227 171.906 96.0547 171.398 96.7188C170.897 97.3763 170.646 98.3301 170.646 99.5801V99.9219C170.646 101.139 170.897 102.077 171.398 102.734C171.9 103.392 172.616 103.721 173.547 103.721ZM181.584 95.7129C182.385 94.7298 183.426 94.2383 184.709 94.2383C186.942 94.2383 188.068 95.498 188.088 98.0176V105H186.281V98.0078C186.275 97.2461 186.099 96.6829 185.754 96.3184C185.415 95.9538 184.885 95.7715 184.162 95.7715C183.576 95.7715 183.062 95.9277 182.619 96.2402C182.176 96.5527 181.831 96.9629 181.584 97.4707V105H179.777V90H181.584V95.7129Z" fill="black" fill-opacity="0.24"/>
<defs>
<filter id="filter0_dd" x="70" y="72" width="348" height="54" filterUnits="userSpaceOnUse" color-interpolation-filters="sRGB">
<feFlood flood-opacity="0" result="BackgroundImageFix"/>
<feColorMatrix in="SourceAlpha" type="matrix" values="0 0 0 0 0 0 0 0 0 0 0 0 0 0 0 0 0 0 127 0"/>
<feOffset dy="2"/>
<feGaussianBlur stdDeviation="1"/>
<feColorMatrix type="matrix" values="0 0 0 0 0 0 0 0 0 0 0 0 0 0 0 0 0 0 0.24 0"/>
<feBlend mode="normal" in2="BackgroundImageFix" result="effect1_dropShadow"/>
<feColorMatrix in="SourceAlpha" type="matrix" values="0 0 0 0 0 0 0 0 0 0 0 0 0 0 0 0 0 0 127 0"/>
<feOffset/>
<feGaussianBlur stdDeviation="1"/>
<feColorMatrix type="matrix" values="0 0 0 0 0 0 0 0 0 0 0 0 0 0 0 0 0 0 0.12 0"/>
<feBlend mode="normal" in2="effect1_dropShadow" result="effect2_dropShadow"/>
<feBlend mode="normal" in="SourceGraphic" in2="effect2_dropShadow" result="shape"/>
</filter>
</defs>
</svg>
