<svg width="352" height="194" viewBox="0 0 352 194" fill="none" xmlns="http://www.w3.org/2000/svg">
<rect width="352" height="194" fill="#E5E5E5"/>
<g filter="url(#filter0_d)">
<path d="M4 6C4 3.79086 5.79086 2 8 2H344C346.209 2 348 3.79086 348 6V184C348 186.209 346.209 188 344 188H8C5.79086 188 4 186.209 4 184V6Z" fill="white"/>
</g>
<path d="M26.0489 76.3105L26.2129 77.4355L26.4532 76.4219L28.1407 70.4688H29.0899L30.7364 76.4219L30.9707 77.4531L31.1524 76.3047L32.4766 70.4688H33.6075L31.5391 79H30.5137L28.7559 72.7832L28.6211 72.1328L28.4864 72.7832L26.6641 79H25.6387L23.5762 70.4688H24.7012L26.0489 76.3105ZM34.2168 75.7715C34.2168 75.1504 34.3379 74.5918 34.5801 74.0957C34.8262 73.5996 35.1661 73.2168 35.5997 72.9473C36.0372 72.6777 36.5352 72.543 37.0938 72.543C37.9571 72.543 38.6543 72.8418 39.1856 73.4395C39.7207 74.0371 39.9883 74.832 39.9883 75.8242V75.9004C39.9883 76.5176 39.8692 77.0723 39.6309 77.5645C39.3965 78.0527 39.0586 78.4336 38.6172 78.707C38.1797 78.9805 37.6758 79.1172 37.1055 79.1172C36.2461 79.1172 35.5489 78.8184 35.0137 78.2207C34.4825 77.623 34.2168 76.832 34.2168 75.8477V75.7715ZM35.3067 75.9004C35.3067 76.6035 35.4688 77.168 35.793 77.5938C36.1211 78.0195 36.5586 78.2324 37.1055 78.2324C37.6563 78.2324 38.0938 78.0176 38.418 77.5879C38.7422 77.1543 38.9043 76.5488 38.9043 75.7715C38.9043 75.0762 38.7383 74.5137 38.4063 74.084C38.0782 73.6504 37.6407 73.4336 37.0938 73.4336C36.5586 73.4336 36.127 73.6465 35.7989 74.0723C35.4707 74.498 35.3067 75.1074 35.3067 75.9004ZM45.2618 78.373C44.8399 78.8691 44.2207 79.1172 43.4043 79.1172C42.7286 79.1172 42.2129 78.9219 41.8575 78.5312C41.5059 78.1367 41.3282 77.5547 41.3243 76.7852V72.6602H42.4082V76.7559C42.4082 77.7168 42.7989 78.1973 43.5801 78.1973C44.4082 78.1973 44.959 77.8887 45.2325 77.2715V72.6602H46.3165V79H45.2852L45.2618 78.373ZM49.1465 79H48.0625V70H49.1465V79ZM50.6231 75.7773C50.6231 74.8047 50.8536 74.0234 51.3145 73.4336C51.7754 72.8398 52.379 72.543 53.125 72.543C53.8672 72.543 54.4551 72.7969 54.8887 73.3047V70H55.9727V79H54.9766L54.9239 78.3203C54.4903 78.8516 53.8868 79.1172 53.1133 79.1172C52.379 79.1172 51.7793 78.8164 51.3145 78.2148C50.8536 77.6133 50.6231 76.8281 50.6231 75.8594V75.7773ZM51.7071 75.9004C51.7071 76.6191 51.8555 77.1816 52.1524 77.5879C52.4493 77.9941 52.8594 78.1973 53.3829 78.1973C54.0704 78.1973 54.5723 77.8887 54.8887 77.2715V74.3594C54.5645 73.7617 54.0665 73.4629 53.3946 73.4629C52.8633 73.4629 52.4493 73.668 52.1524 74.0781C51.8555 74.4883 51.7071 75.0957 51.7071 75.9004ZM62.711 77.4121L64.1875 72.6602H65.3477L62.7989 79.9785C62.4043 81.0332 61.7774 81.5605 60.918 81.5605L60.7129 81.543L60.3086 81.4668V80.5879L60.6016 80.6113C60.9688 80.6113 61.254 80.5371 61.4571 80.3887C61.6641 80.2402 61.834 79.9688 61.9668 79.5742L62.2071 78.9297L59.9454 72.6602H61.129L62.711 77.4121ZM65.9395 75.7715C65.9395 75.1504 66.0606 74.5918 66.3028 74.0957C66.5489 73.5996 66.8887 73.2168 67.3223 72.9473C67.7598 72.6777 68.2579 72.543 68.8165 72.543C69.6797 72.543 70.377 72.8418 70.9082 73.4395C71.4434 74.0371 71.711 74.832 71.711 75.8242V75.9004C71.711 76.5176 71.5918 77.0723 71.3536 77.5645C71.1192 78.0527 70.7813 78.4336 70.3399 78.707C69.9024 78.9805 69.3985 79.1172 68.8282 79.1172C67.9688 79.1172 67.2715 78.8184 66.7364 78.2207C66.2051 77.623 65.9395 76.832 65.9395 75.8477V75.7715ZM67.0293 75.9004C67.0293 76.6035 67.1915 77.168 67.5157 77.5938C67.8438 78.0195 68.2813 78.2324 68.8282 78.2324C69.379 78.2324 69.8165 78.0176 70.1407 77.5879C70.4649 77.1543 70.627 76.5488 70.627 75.7715C70.627 75.0762 70.461 74.5137 70.129 74.084C69.8008 73.6504 69.3633 73.4336 68.8165 73.4336C68.2813 73.4336 67.8497 73.6465 67.5215 74.0723C67.1934 74.498 67.0293 75.1074 67.0293 75.9004ZM76.9844 78.373C76.5625 78.8691 75.9434 79.1172 75.127 79.1172C74.4512 79.1172 73.9356 78.9219 73.5801 78.5312C73.2286 78.1367 73.0508 77.5547 73.0469 76.7852V72.6602H74.1309V76.7559C74.1309 77.7168 74.5215 78.1973 75.3028 78.1973C76.1309 78.1973 76.6817 77.8887 76.9551 77.2715V72.6602H78.0391V79H77.0079L76.9844 78.373ZM83.8457 79H82.7618V70H83.8457V79ZM86.7637 79H85.6797V72.6602H86.7637V79ZM85.5918 70.9785C85.5918 70.8027 85.6446 70.6543 85.75 70.5332C85.8594 70.4121 86.0196 70.3516 86.2305 70.3516C86.4415 70.3516 86.6016 70.4121 86.711 70.5332C86.8204 70.6543 86.875 70.8027 86.875 70.9785C86.875 71.1543 86.8204 71.3008 86.711 71.418C86.6016 71.5352 86.4415 71.5938 86.2305 71.5938C86.0196 71.5938 85.8594 71.5352 85.75 71.418C85.6446 71.3008 85.5918 71.1543 85.5918 70.9785ZM90.2735 76.0645L89.5938 76.7734V79H88.5098V70H89.5938V75.4434L90.1739 74.7461L92.1485 72.6602H93.4668L91 75.3086L93.754 79H92.4825L90.2735 76.0645ZM97.0997 79.1172C96.2403 79.1172 95.5411 78.8359 95.002 78.2734C94.4629 77.707 94.1934 76.9512 94.1934 76.0059V75.8066C94.1934 75.1777 94.3125 74.6172 94.5508 74.125C94.793 73.6289 95.129 73.2422 95.5586 72.9648C95.9922 72.6836 96.461 72.543 96.9649 72.543C97.7891 72.543 98.4297 72.8145 98.8868 73.3574C99.3438 73.9004 99.5723 74.6777 99.5723 75.6895V76.1406H95.2774C95.293 76.7656 95.4747 77.2715 95.8223 77.6582C96.1739 78.041 96.6192 78.2324 97.1582 78.2324C97.5411 78.2324 97.8653 78.1543 98.1309 77.998C98.3965 77.8418 98.629 77.6348 98.8282 77.377L99.4903 77.8926C98.959 78.709 98.1622 79.1172 97.0997 79.1172ZM96.9649 73.4336C96.5274 73.4336 96.1602 73.5938 95.8633 73.9141C95.5665 74.2305 95.3829 74.6758 95.3125 75.25H98.4883V75.168C98.4571 74.6172 98.3086 74.1914 98.043 73.8906C97.7774 73.5859 97.418 73.4336 96.9649 73.4336ZM105.279 71.125V72.6602H106.463V73.498H105.279V77.4297C105.279 77.6836 105.332 77.875 105.438 78.0039C105.543 78.1289 105.723 78.1914 105.977 78.1914C106.102 78.1914 106.273 78.168 106.492 78.1211V79C106.207 79.0781 105.93 79.1172 105.66 79.1172C105.176 79.1172 104.811 78.9707 104.564 78.6777C104.318 78.3848 104.195 77.9688 104.195 77.4297V73.498H103.041V72.6602H104.195V71.125H105.279ZM107.33 75.7715C107.33 75.1504 107.451 74.5918 107.693 74.0957C107.939 73.5996 108.279 73.2168 108.713 72.9473C109.15 72.6777 109.648 72.543 110.207 72.543C111.07 72.543 111.768 72.8418 112.299 73.4395C112.834 74.0371 113.102 74.832 113.102 75.8242V75.9004C113.102 76.5176 112.982 77.0723 112.744 77.5645C112.51 78.0527 112.172 78.4336 111.731 78.707C111.293 78.9805 110.789 79.1172 110.219 79.1172C109.359 79.1172 108.662 78.8184 108.127 78.2207C107.596 77.623 107.33 76.832 107.33 75.8477V75.7715ZM108.42 75.9004C108.42 76.6035 108.582 77.168 108.906 77.5938C109.234 78.0195 109.672 78.2324 110.219 78.2324C110.77 78.2324 111.207 78.0176 111.531 77.5879C111.856 77.1543 112.018 76.5488 112.018 75.7715C112.018 75.0762 111.852 74.5137 111.52 74.084C111.191 73.6504 110.754 73.4336 110.207 73.4336C109.672 73.4336 109.24 73.6465 108.912 74.0723C108.584 74.498 108.42 75.1074 108.42 75.9004ZM119.981 78.2324C120.367 78.2324 120.705 78.1152 120.994 77.8809C121.283 77.6465 121.443 77.3535 121.475 77.002H122.5C122.481 77.3652 122.356 77.7109 122.125 78.0391C121.895 78.3672 121.586 78.6289 121.199 78.8242C120.816 79.0195 120.41 79.1172 119.981 79.1172C119.117 79.1172 118.43 78.8301 117.918 78.2559C117.41 77.6777 117.156 76.8887 117.156 75.8887V75.707C117.156 75.0898 117.27 74.541 117.496 74.0605C117.723 73.5801 118.047 73.207 118.469 72.9414C118.895 72.6758 119.397 72.543 119.975 72.543C120.686 72.543 121.275 72.7559 121.744 73.1816C122.217 73.6074 122.469 74.1602 122.5 74.8398H121.475C121.443 74.4297 121.287 74.0938 121.006 73.832C120.729 73.5664 120.385 73.4336 119.975 73.4336C119.424 73.4336 118.996 73.6328 118.691 74.0312C118.391 74.4258 118.24 74.998 118.24 75.748V75.9531C118.24 76.6836 118.391 77.2461 118.691 77.6406C118.992 78.0352 119.422 78.2324 119.981 78.2324ZM123.432 75.7715C123.432 75.1504 123.553 74.5918 123.795 74.0957C124.041 73.5996 124.381 73.2168 124.814 72.9473C125.252 72.6777 125.75 72.543 126.309 72.543C127.172 72.543 127.869 72.8418 128.4 73.4395C128.936 74.0371 129.203 74.832 129.203 75.8242V75.9004C129.203 76.5176 129.084 77.0723 128.846 77.5645C128.611 78.0527 128.273 78.4336 127.832 78.707C127.395 78.9805 126.891 79.1172 126.32 79.1172C125.461 79.1172 124.764 78.8184 124.229 78.2207C123.697 77.623 123.432 76.832 123.432 75.8477V75.7715ZM124.522 75.9004C124.522 76.6035 124.684 77.168 125.008 77.5938C125.336 78.0195 125.773 78.2324 126.32 78.2324C126.871 78.2324 127.309 78.0176 127.633 77.5879C127.957 77.1543 128.119 76.5488 128.119 75.7715C128.119 75.0762 127.953 74.5137 127.621 74.084C127.293 73.6504 126.856 73.4336 126.309 73.4336C125.773 73.4336 125.342 73.6465 125.014 74.0723C124.686 74.498 124.522 75.1074 124.522 75.9004ZM131.588 72.6602L131.623 73.457C132.107 72.8477 132.74 72.543 133.522 72.543C134.861 72.543 135.537 73.2988 135.549 74.8105V79H134.465V74.8047C134.461 74.3477 134.356 74.0098 134.148 73.791C133.945 73.5723 133.627 73.4629 133.193 73.4629C132.842 73.4629 132.533 73.5566 132.268 73.7441C132.002 73.9316 131.795 74.1777 131.647 74.4824V79H130.563V72.6602H131.588ZM138.654 71.125V72.6602H139.838V73.498H138.654V77.4297C138.654 77.6836 138.707 77.875 138.813 78.0039C138.918 78.1289 139.098 78.1914 139.352 78.1914C139.477 78.1914 139.648 78.168 139.867 78.1211V79C139.582 79.0781 139.305 79.1172 139.035 79.1172C138.551 79.1172 138.186 78.9707 137.939 78.6777C137.693 78.3848 137.57 77.9688 137.57 77.4297V73.498H136.416V72.6602H137.57V71.125H138.654ZM142.287 79H141.203V72.6602H142.287V79ZM141.115 70.9785C141.115 70.8027 141.168 70.6543 141.273 70.5332C141.383 70.4121 141.543 70.3516 141.754 70.3516C141.965 70.3516 142.125 70.4121 142.234 70.5332C142.344 70.6543 142.398 70.8027 142.398 70.9785C142.398 71.1543 142.344 71.3008 142.234 71.418C142.125 71.5352 141.965 71.5938 141.754 71.5938C141.543 71.5938 141.383 71.5352 141.273 71.418C141.168 71.3008 141.115 71.1543 141.115 70.9785ZM145.053 72.6602L145.088 73.457C145.572 72.8477 146.205 72.543 146.986 72.543C148.326 72.543 149.002 73.2988 149.014 74.8105V79H147.93V74.8047C147.926 74.3477 147.82 74.0098 147.613 73.791C147.41 73.5723 147.092 73.4629 146.658 73.4629C146.307 73.4629 145.998 73.5566 145.732 73.7441C145.467 73.9316 145.26 74.1777 145.111 74.4824V79H144.027V72.6602H145.053ZM154.563 78.373C154.141 78.8691 153.522 79.1172 152.705 79.1172C152.029 79.1172 151.514 78.9219 151.158 78.5312C150.807 78.1367 150.629 77.5547 150.625 76.7852V72.6602H151.709V76.7559C151.709 77.7168 152.1 78.1973 152.881 78.1973C153.709 78.1973 154.26 77.8887 154.533 77.2715V72.6602H155.617V79H154.586L154.563 78.373ZM159.9 79.1172C159.041 79.1172 158.342 78.8359 157.803 78.2734C157.264 77.707 156.994 76.9512 156.994 76.0059V75.8066C156.994 75.1777 157.113 74.6172 157.352 74.125C157.594 73.6289 157.93 73.2422 158.359 72.9648C158.793 72.6836 159.262 72.543 159.766 72.543C160.59 72.543 161.231 72.8145 161.688 73.3574C162.145 73.9004 162.373 74.6777 162.373 75.6895V76.1406H158.078C158.094 76.7656 158.275 77.2715 158.623 77.6582C158.975 78.041 159.42 78.2324 159.959 78.2324C160.342 78.2324 160.666 78.1543 160.932 77.998C161.197 77.8418 161.43 77.6348 161.629 77.377L162.291 77.8926C161.76 78.709 160.963 79.1172 159.9 79.1172ZM159.766 73.4336C159.328 73.4336 158.961 73.5938 158.664 73.9141C158.367 74.2305 158.184 74.6758 158.113 75.25H161.289V75.168C161.258 74.6172 161.109 74.1914 160.844 73.8906C160.578 73.5859 160.219 73.4336 159.766 73.4336ZM164.904 76.5977C164.912 76.1328 164.965 75.7656 165.063 75.4961C165.16 75.2266 165.359 74.9277 165.66 74.5996L166.428 73.8086C166.756 73.4375 166.92 73.0391 166.92 72.6133C166.92 72.2031 166.813 71.8828 166.598 71.6523C166.383 71.418 166.07 71.3008 165.66 71.3008C165.262 71.3008 164.941 71.4062 164.699 71.6172C164.457 71.8281 164.336 72.1113 164.336 72.4668H163.252C163.26 71.834 163.484 71.3242 163.926 70.9375C164.371 70.5469 164.949 70.3516 165.66 70.3516C166.398 70.3516 166.973 70.5508 167.383 70.9492C167.797 71.3438 168.004 71.8867 168.004 72.5781C168.004 73.2617 167.688 73.9355 167.055 74.5996L166.416 75.2324C166.131 75.5488 165.988 76.0039 165.988 76.5977H164.904ZM164.857 78.4551C164.857 78.2793 164.91 78.1328 165.016 78.0156C165.125 77.8945 165.285 77.834 165.496 77.834C165.707 77.834 165.867 77.8945 165.977 78.0156C166.086 78.1328 166.141 78.2793 166.141 78.4551C166.141 78.6309 166.086 78.7773 165.977 78.8945C165.867 79.0078 165.707 79.0645 165.496 79.0645C165.285 79.0645 165.125 79.0078 165.016 78.8945C164.91 78.7773 164.857 78.6309 164.857 78.4551Z" fill="black"/>
<path d="M4 135.5H348" stroke="black" stroke-opacity="0.12"/>
<path d="M38.4645 168H36.735L32.2985 160.938V168H30.569V158.047H32.2985L36.7487 165.136V158.047H38.4645V168ZM48.7318 163.283C48.7318 164.258 48.5632 165.115 48.2259 165.854C47.8887 166.587 47.4056 167.152 46.7767 167.549C46.1524 167.941 45.4323 168.137 44.6166 168.137C43.8099 168.137 43.0899 167.941 42.4564 167.549C41.8275 167.152 41.3399 166.59 40.9935 165.86C40.6517 165.131 40.4785 164.29 40.474 163.338V162.777C40.474 161.807 40.6449 160.95 40.9867 160.207C41.333 159.464 41.8184 158.897 42.4427 158.505C43.0716 158.108 43.7917 157.91 44.6029 157.91C45.4141 157.91 46.1319 158.106 46.7562 158.498C47.3851 158.885 47.8705 159.446 48.2123 160.18C48.5541 160.909 48.7272 161.759 48.7318 162.729V163.283ZM47.0023 162.764C47.0023 161.661 46.7927 160.815 46.3734 160.228C45.9587 159.64 45.3685 159.346 44.6029 159.346C43.8555 159.346 43.2699 159.64 42.8461 160.228C42.4268 160.811 42.2126 161.638 42.2035 162.709V163.283C42.2035 164.377 42.4154 165.222 42.8392 165.819C43.2676 166.416 43.8601 166.715 44.6166 166.715C45.3822 166.715 45.9701 166.423 46.3802 165.84C46.7949 165.257 47.0023 164.404 47.0023 163.283V162.764Z" fill="#1554F6"/>
<path d="M95.5305 162.764L97.8206 158.047H99.7346L96.3987 164.336V168H94.6624V164.336L91.3196 158.047H93.2405L95.5305 162.764ZM106.912 163.557H102.824V166.619H107.603V168H101.095V158.047H107.555V159.441H102.824V162.189H106.912V163.557ZM114.493 165.437C114.493 164.999 114.338 164.662 114.028 164.425C113.723 164.188 113.169 163.949 112.367 163.707C111.565 163.465 110.927 163.197 110.453 162.9C109.546 162.331 109.092 161.588 109.092 160.672C109.092 159.87 109.418 159.209 110.07 158.689C110.726 158.17 111.576 157.91 112.62 157.91C113.313 157.91 113.93 158.038 114.472 158.293C115.015 158.548 115.441 158.913 115.751 159.387C116.061 159.856 116.216 160.378 116.216 160.952H114.493C114.493 160.433 114.329 160.027 114.001 159.735C113.677 159.439 113.212 159.291 112.606 159.291C112.041 159.291 111.601 159.412 111.287 159.653C110.977 159.895 110.822 160.232 110.822 160.665C110.822 161.03 110.991 161.335 111.328 161.581C111.665 161.823 112.221 162.06 112.996 162.292C113.771 162.52 114.393 162.782 114.862 163.078C115.331 163.37 115.676 163.707 115.894 164.09C116.113 164.468 116.222 164.912 116.222 165.423C116.222 166.252 115.903 166.913 115.265 167.405C114.632 167.893 113.771 168.137 112.681 168.137C111.961 168.137 111.298 168.005 110.692 167.74C110.091 167.471 109.621 167.102 109.284 166.633C108.951 166.163 108.785 165.617 108.785 164.992H110.514C110.514 165.557 110.701 165.995 111.075 166.305C111.449 166.615 111.984 166.77 112.681 166.77C113.283 166.77 113.734 166.649 114.035 166.407C114.34 166.161 114.493 165.838 114.493 165.437Z" fill="#1554F6"/>
<path d="M41.7012 36.7734H38.127L37.3242 39H36.1641L39.4219 30.4688H40.4062L43.6699 39H42.5156L41.7012 36.7734ZM38.4668 35.8477H41.3672L39.9141 31.8574L38.4668 35.8477ZM46.0137 31.125V32.6602H47.1973V33.498H46.0137V37.4297C46.0137 37.6836 46.0664 37.875 46.1719 38.0039C46.2773 38.1289 46.457 38.1914 46.7109 38.1914C46.8359 38.1914 47.0078 38.168 47.2266 38.1211V39C46.9414 39.0781 46.6641 39.1172 46.3945 39.1172C45.9102 39.1172 45.5449 38.9707 45.2988 38.6777C45.0527 38.3848 44.9297 37.9688 44.9297 37.4297V33.498H43.7754V32.6602H44.9297V31.125H46.0137ZM49.9395 31.125V32.6602H51.123V33.498H49.9395V37.4297C49.9395 37.6836 49.9922 37.875 50.0977 38.0039C50.2031 38.1289 50.3828 38.1914 50.6367 38.1914C50.7617 38.1914 50.9336 38.168 51.1523 38.1211V39C50.8672 39.0781 50.5898 39.1172 50.3203 39.1172C49.8359 39.1172 49.4707 38.9707 49.2246 38.6777C48.9785 38.3848 48.8555 37.9688 48.8555 37.4297V33.498H47.7012V32.6602H48.8555V31.125H49.9395ZM55.0254 39.1172C54.166 39.1172 53.4668 38.8359 52.9277 38.2734C52.3887 37.707 52.1191 36.9512 52.1191 36.0059V35.8066C52.1191 35.1777 52.2383 34.6172 52.4766 34.125C52.7188 33.6289 53.0547 33.2422 53.4844 32.9648C53.918 32.6836 54.3867 32.543 54.8906 32.543C55.7148 32.543 56.3555 32.8145 56.8125 33.3574C57.2695 33.9004 57.498 34.6777 57.498 35.6895V36.1406H53.2031C53.2188 36.7656 53.4004 37.2715 53.748 37.6582C54.0996 38.041 54.5449 38.2324 55.084 38.2324C55.4668 38.2324 55.791 38.1543 56.0566 37.998C56.3223 37.8418 56.5547 37.6348 56.7539 37.377L57.416 37.8926C56.8848 38.709 56.0879 39.1172 55.0254 39.1172ZM54.8906 33.4336C54.4531 33.4336 54.0859 33.5938 53.7891 33.9141C53.4922 34.2305 53.3086 34.6758 53.2383 35.25H56.4141V35.168C56.3828 34.6172 56.2344 34.1914 55.9688 33.8906C55.7031 33.5859 55.3438 33.4336 54.8906 33.4336ZM59.7832 32.6602L59.8184 33.457C60.3027 32.8477 60.9355 32.543 61.7168 32.543C63.0566 32.543 63.7324 33.2988 63.7441 34.8105V39H62.6602V34.8047C62.6562 34.3477 62.5508 34.0098 62.3438 33.791C62.1406 33.5723 61.8223 33.4629 61.3887 33.4629C61.0371 33.4629 60.7285 33.5566 60.4629 33.7441C60.1973 33.9316 59.9902 34.1777 59.8418 34.4824V39H58.7578V32.6602H59.7832ZM66.8496 31.125V32.6602H68.0332V33.498H66.8496V37.4297C66.8496 37.6836 66.9023 37.875 67.0078 38.0039C67.1133 38.1289 67.293 38.1914 67.5469 38.1914C67.6719 38.1914 67.8438 38.168 68.0625 38.1211V39C67.7773 39.0781 67.5 39.1172 67.2305 39.1172C66.7461 39.1172 66.3809 38.9707 66.1348 38.6777C65.8887 38.3848 65.7656 37.9688 65.7656 37.4297V33.498H64.6113V32.6602H65.7656V31.125H66.8496ZM70.4824 39H69.3984V32.6602H70.4824V39ZM69.3105 30.9785C69.3105 30.8027 69.3633 30.6543 69.4688 30.5332C69.5781 30.4121 69.7383 30.3516 69.9492 30.3516C70.1602 30.3516 70.3203 30.4121 70.4297 30.5332C70.5391 30.6543 70.5938 30.8027 70.5938 30.9785C70.5938 31.1543 70.5391 31.3008 70.4297 31.418C70.3203 31.5352 70.1602 31.5938 69.9492 31.5938C69.7383 31.5938 69.5781 31.5352 69.4688 31.418C69.3633 31.3008 69.3105 31.1543 69.3105 30.9785ZM71.9355 35.7715C71.9355 35.1504 72.0566 34.5918 72.2988 34.0957C72.5449 33.5996 72.8848 33.2168 73.3184 32.9473C73.7559 32.6777 74.2539 32.543 74.8125 32.543C75.6758 32.543 76.373 32.8418 76.9043 33.4395C77.4395 34.0371 77.707 34.832 77.707 35.8242V35.9004C77.707 36.5176 77.5879 37.0723 77.3496 37.5645C77.1152 38.0527 76.7773 38.4336 76.3359 38.707C75.8984 38.9805 75.3945 39.1172 74.8242 39.1172C73.9648 39.1172 73.2676 38.8184 72.7324 38.2207C72.2012 37.623 71.9355 36.832 71.9355 35.8477V35.7715ZM73.0254 35.9004C73.0254 36.6035 73.1875 37.168 73.5117 37.5938C73.8398 38.0195 74.2773 38.2324 74.8242 38.2324C75.375 38.2324 75.8125 38.0176 76.1367 37.5879C76.4609 37.1543 76.623 36.5488 76.623 35.7715C76.623 35.0762 76.457 34.5137 76.125 34.084C75.7969 33.6504 75.3594 33.4336 74.8125 33.4336C74.2773 33.4336 73.8457 33.6465 73.5176 34.0723C73.1895 34.498 73.0254 35.1074 73.0254 35.9004ZM80.0918 32.6602L80.127 33.457C80.6113 32.8477 81.2441 32.543 82.0254 32.543C83.3652 32.543 84.041 33.2988 84.0527 34.8105V39H82.9688V34.8047C82.9648 34.3477 82.8594 34.0098 82.6523 33.791C82.4492 33.5723 82.1309 33.4629 81.6973 33.4629C81.3457 33.4629 81.0371 33.5566 80.7715 33.7441C80.5059 33.9316 80.2988 34.1777 80.1504 34.4824V39H79.0664V32.6602H80.0918ZM94.8398 30.4688V36.2695C94.8359 37.0742 94.582 37.7324 94.0781 38.2441C93.5781 38.7559 92.8984 39.043 92.0391 39.1055L91.7402 39.1172C90.8066 39.1172 90.0625 38.8652 89.5078 38.3613C88.9531 37.8574 88.6719 37.1641 88.6641 36.2812V30.4688H89.7773V36.2461C89.7773 36.8633 89.9473 37.3438 90.2871 37.6875C90.627 38.0273 91.1113 38.1973 91.7402 38.1973C92.377 38.1973 92.8633 38.0273 93.1992 37.6875C93.5391 37.3477 93.709 36.8691 93.709 36.252V30.4688H94.8398ZM100.137 37.3184C100.137 37.0254 100.025 36.7988 99.8027 36.6387C99.584 36.4746 99.1992 36.334 98.6484 36.2168C98.1016 36.0996 97.666 35.959 97.3418 35.7949C97.0215 35.6309 96.7832 35.4355 96.627 35.209C96.4746 34.9824 96.3984 34.7129 96.3984 34.4004C96.3984 33.8809 96.6172 33.4414 97.0547 33.082C97.4961 32.7227 98.0586 32.543 98.7422 32.543C99.4609 32.543 100.043 32.7285 100.488 33.0996C100.938 33.4707 101.162 33.9453 101.162 34.5234H100.072C100.072 34.2266 99.9453 33.9707 99.6914 33.7559C99.4414 33.541 99.125 33.4336 98.7422 33.4336C98.3477 33.4336 98.0391 33.5195 97.8164 33.6914C97.5938 33.8633 97.4824 34.0879 97.4824 34.3652C97.4824 34.627 97.5859 34.8242 97.793 34.957C98 35.0898 98.373 35.2168 98.9121 35.3379C99.4551 35.459 99.8945 35.6035 100.23 35.7715C100.566 35.9395 100.814 36.1426 100.975 36.3809C101.139 36.6152 101.221 36.9023 101.221 37.2422C101.221 37.8086 100.994 38.2637 100.541 38.6074C100.088 38.9473 99.5 39.1172 98.7773 39.1172C98.2695 39.1172 97.8203 39.0273 97.4297 38.8477C97.0391 38.668 96.7324 38.418 96.5098 38.0977C96.291 37.7734 96.1816 37.4238 96.1816 37.0488H97.2656C97.2852 37.4121 97.4297 37.7012 97.6992 37.916C97.9727 38.127 98.332 38.2324 98.7773 38.2324C99.1875 38.2324 99.5156 38.1504 99.7617 37.9863C100.012 37.8184 100.137 37.5957 100.137 37.3184ZM105.264 39.1172C104.404 39.1172 103.705 38.8359 103.166 38.2734C102.627 37.707 102.357 36.9512 102.357 36.0059V35.8066C102.357 35.1777 102.477 34.6172 102.715 34.125C102.957 33.6289 103.293 33.2422 103.723 32.9648C104.156 32.6836 104.625 32.543 105.129 32.543C105.953 32.543 106.594 32.8145 107.051 33.3574C107.508 33.9004 107.736 34.6777 107.736 35.6895V36.1406H103.441C103.457 36.7656 103.639 37.2715 103.986 37.6582C104.338 38.041 104.783 38.2324 105.322 38.2324C105.705 38.2324 106.029 38.1543 106.295 37.998C106.561 37.8418 106.793 37.6348 106.992 37.377L107.654 37.8926C107.123 38.709 106.326 39.1172 105.264 39.1172ZM105.129 33.4336C104.691 33.4336 104.324 33.5938 104.027 33.9141C103.73 34.2305 103.547 34.6758 103.477 35.25H106.652V35.168C106.621 34.6172 106.473 34.1914 106.207 33.8906C105.941 33.5859 105.582 33.4336 105.129 33.4336ZM112.061 33.6328C111.896 33.6055 111.719 33.5918 111.527 33.5918C110.816 33.5918 110.334 33.8945 110.08 34.5V39H108.996V32.6602H110.051L110.068 33.3926C110.424 32.8262 110.928 32.543 111.58 32.543C111.791 32.543 111.951 32.5703 112.061 32.625V33.6328Z" fill="black"/>
<defs>
<filter id="filter0_d" x="0" y="0" width="352" height="194" filterUnits="userSpaceOnUse" color-interpolation-filters="sRGB">
<feFlood flood-opacity="0" result="BackgroundImageFix"/>
<feColorMatrix in="SourceAlpha" type="matrix" values="0 0 0 0 0 0 0 0 0 0 0 0 0 0 0 0 0 0 127 0"/>
<feOffset dy="2"/>
<feGaussianBlur stdDeviation="2"/>
<feColorMatrix type="matrix" values="0 0 0 0 0 0 0 0 0 0 0 0 0 0 0 0 0 0 0.25 0"/>
<feBlend mode="normal" in2="BackgroundImageFix" result="effect1_dropShadow"/>
<feBlend mode="normal" in="SourceGraphic" in2="effect1_dropShadow" result="shape"/>
</filter>
</defs>
</svg>
