<svg width="352" height="312" viewBox="0 0 352 312" fill="none" xmlns="http://www.w3.org/2000/svg">
<rect width="352" height="312" fill="#E5E5E5"/>
<g filter="url(#filter0_d)">
<path d="M4 6C4 3.79086 5.79086 2 8 2H344C346.209 2 348 3.79086 348 6V302C348 304.209 346.209 306 344 306H8C5.79086 306 4 304.209 4 302V6Z" fill="white"/>
</g>
<mask id="mask0" mask-type="alpha" maskUnits="userSpaceOnUse" x="8" y="0" width="344" height="304">
<path d="M8 4C8 1.79086 9.79086 0 12 0H348C350.209 0 352 1.79086 352 4V300C352 302.209 350.209 304 348 304H12C9.79086 304 8 302.209 8 300V4Z" fill="white"/>
</mask>
<g mask="url(#mask0)">
<path d="M352 88H8V264H352V88Z" fill="#1554F6"/>
<path d="M348 257H4V258H348V257Z" fill="black" fill-opacity="0.12"/>
<path d="M127.512 284.922C127.195 285.301 126.748 285.596 126.17 285.807C125.592 286.014 124.951 286.117 124.248 286.117C123.51 286.117 122.861 285.957 122.303 285.637C121.748 285.312 121.318 284.844 121.014 284.23C120.713 283.617 120.559 282.896 120.551 282.068V281.488C120.551 280.637 120.693 279.9 120.979 279.279C121.268 278.654 121.682 278.178 122.221 277.85C122.764 277.518 123.398 277.352 124.125 277.352C125.137 277.352 125.928 277.594 126.498 278.078C127.068 278.559 127.406 279.26 127.512 280.182H125.801C125.723 279.693 125.549 279.336 125.279 279.109C125.014 278.883 124.646 278.77 124.178 278.77C123.58 278.77 123.125 278.994 122.812 279.443C122.5 279.893 122.342 280.561 122.338 281.447V281.992C122.338 282.887 122.508 283.562 122.848 284.02C123.188 284.477 123.686 284.705 124.342 284.705C125.002 284.705 125.473 284.564 125.754 284.283V282.812H124.154V281.518H127.512V284.922ZM128.566 282.771C128.566 282.143 128.688 281.582 128.93 281.09C129.172 280.598 129.52 280.217 129.973 279.947C130.43 279.678 130.959 279.543 131.561 279.543C132.416 279.543 133.113 279.805 133.652 280.328C134.195 280.852 134.498 281.562 134.561 282.461L134.572 282.895C134.572 283.867 134.301 284.648 133.758 285.238C133.215 285.824 132.486 286.117 131.572 286.117C130.658 286.117 129.928 285.824 129.381 285.238C128.838 284.652 128.566 283.855 128.566 282.848V282.771ZM130.26 282.895C130.26 283.496 130.373 283.957 130.6 284.277C130.826 284.594 131.15 284.752 131.572 284.752C131.982 284.752 132.303 284.596 132.533 284.283C132.764 283.967 132.879 283.463 132.879 282.771C132.879 282.182 132.764 281.725 132.533 281.4C132.303 281.076 131.979 280.914 131.561 280.914C131.146 280.914 130.826 281.076 130.6 281.4C130.373 281.721 130.26 282.219 130.26 282.895ZM138.715 286V277.469H141.703C142.738 277.469 143.523 277.668 144.059 278.066C144.594 278.461 144.861 279.041 144.861 279.807C144.861 280.225 144.754 280.594 144.539 280.914C144.324 281.23 144.025 281.463 143.643 281.611C144.08 281.721 144.424 281.941 144.674 282.273C144.928 282.605 145.055 283.012 145.055 283.492C145.055 284.312 144.793 284.934 144.27 285.355C143.746 285.777 143 285.992 142.031 286H138.715ZM140.473 282.285V284.588H141.979C142.393 284.588 142.715 284.49 142.945 284.295C143.18 284.096 143.297 283.822 143.297 283.475C143.297 282.693 142.893 282.297 142.084 282.285H140.473ZM140.473 281.043H141.773C142.66 281.027 143.104 280.674 143.104 279.982C143.104 279.596 142.99 279.318 142.764 279.15C142.541 278.979 142.188 278.893 141.703 278.893H140.473V281.043ZM149.941 286C149.863 285.848 149.807 285.658 149.771 285.432C149.361 285.889 148.828 286.117 148.172 286.117C147.551 286.117 147.035 285.938 146.625 285.578C146.219 285.219 146.016 284.766 146.016 284.219C146.016 283.547 146.264 283.031 146.76 282.672C147.26 282.312 147.98 282.131 148.922 282.127H149.701V281.764C149.701 281.471 149.625 281.236 149.473 281.061C149.324 280.885 149.088 280.797 148.764 280.797C148.479 280.797 148.254 280.865 148.09 281.002C147.93 281.139 147.85 281.326 147.85 281.564H146.156C146.156 281.197 146.27 280.857 146.496 280.545C146.723 280.232 147.043 279.988 147.457 279.812C147.871 279.633 148.336 279.543 148.852 279.543C149.633 279.543 150.252 279.74 150.709 280.135C151.17 280.525 151.4 281.076 151.4 281.787V284.535C151.404 285.137 151.488 285.592 151.652 285.9V286H149.941ZM148.541 284.822C148.791 284.822 149.021 284.768 149.232 284.658C149.443 284.545 149.6 284.395 149.701 284.207V283.117H149.068C148.221 283.117 147.77 283.41 147.715 283.996L147.709 284.096C147.709 284.307 147.783 284.48 147.932 284.617C148.08 284.754 148.283 284.822 148.541 284.822ZM155.338 284.752C155.65 284.752 155.904 284.666 156.1 284.494C156.295 284.322 156.396 284.094 156.404 283.809H157.992C157.988 284.238 157.871 284.633 157.641 284.992C157.41 285.348 157.094 285.625 156.691 285.824C156.293 286.02 155.852 286.117 155.367 286.117C154.461 286.117 153.746 285.83 153.223 285.256C152.699 284.678 152.438 283.881 152.438 282.865V282.754C152.438 281.777 152.697 280.998 153.217 280.416C153.736 279.834 154.449 279.543 155.355 279.543C156.148 279.543 156.783 279.77 157.26 280.223C157.74 280.672 157.984 281.271 157.992 282.021H156.404C156.396 281.693 156.295 281.428 156.1 281.225C155.904 281.018 155.646 280.914 155.326 280.914C154.932 280.914 154.633 281.059 154.43 281.348C154.23 281.633 154.131 282.098 154.131 282.742V282.918C154.131 283.57 154.23 284.039 154.43 284.324C154.629 284.609 154.932 284.752 155.338 284.752ZM161.262 283.457L160.652 284.066V286H158.959V277H160.652V281.986L160.98 281.564L162.604 279.66H164.637L162.346 282.303L164.836 286H162.891L161.262 283.457Z" fill="#1554F6"/>
<path d="M35.459 281.158C35.3926 282.076 35.0527 282.799 34.4395 283.326C33.8301 283.854 33.0254 284.117 32.0254 284.117C30.9316 284.117 30.0703 283.75 29.4414 283.016C28.8164 282.277 28.5039 281.266 28.5039 279.98V279.459C28.5039 278.639 28.6484 277.916 28.9375 277.291C29.2266 276.666 29.6387 276.188 30.1738 275.855C30.7129 275.52 31.3379 275.352 32.0488 275.352C33.0332 275.352 33.8262 275.615 34.4277 276.143C35.0293 276.67 35.377 277.41 35.4707 278.363H33.7129C33.6699 277.812 33.5156 277.414 33.25 277.168C32.9883 276.918 32.5879 276.793 32.0488 276.793C31.4629 276.793 31.0234 277.004 30.7305 277.426C30.4414 277.844 30.293 278.494 30.2852 279.377V280.021C30.2852 280.943 30.4238 281.617 30.7012 282.043C30.9824 282.469 31.4238 282.682 32.0254 282.682C32.5684 282.682 32.9727 282.559 33.2383 282.312C33.5078 282.062 33.6621 281.678 33.7012 281.158H35.459ZM36.2383 280.771C36.2383 280.143 36.3594 279.582 36.6016 279.09C36.8438 278.598 37.1914 278.217 37.6445 277.947C38.1016 277.678 38.6309 277.543 39.2324 277.543C40.0879 277.543 40.7852 277.805 41.3242 278.328C41.8672 278.852 42.1699 279.562 42.2324 280.461L42.2441 280.895C42.2441 281.867 41.9727 282.648 41.4297 283.238C40.8867 283.824 40.1582 284.117 39.2441 284.117C38.3301 284.117 37.5996 283.824 37.0527 283.238C36.5098 282.652 36.2383 281.855 36.2383 280.848V280.771ZM37.9316 280.895C37.9316 281.496 38.0449 281.957 38.2715 282.277C38.498 282.594 38.8223 282.752 39.2441 282.752C39.6543 282.752 39.9746 282.596 40.2051 282.283C40.4355 281.967 40.5508 281.463 40.5508 280.771C40.5508 280.182 40.4355 279.725 40.2051 279.4C39.9746 279.076 39.6504 278.914 39.2324 278.914C38.8184 278.914 38.498 279.076 38.2715 279.4C38.0449 279.721 37.9316 280.219 37.9316 280.895ZM44.8457 277.66L44.8984 278.393C45.3516 277.826 45.959 277.543 46.7207 277.543C47.3926 277.543 47.8926 277.74 48.2207 278.135C48.5488 278.529 48.7168 279.119 48.7246 279.904V284H47.0312V279.945C47.0312 279.586 46.9531 279.326 46.7969 279.166C46.6406 279.002 46.3809 278.92 46.0176 278.92C45.541 278.92 45.1836 279.123 44.9453 279.529V284H43.252V277.66H44.8457ZM52.041 276.102V277.66H53.125V278.902H52.041V282.066C52.041 282.301 52.0859 282.469 52.1758 282.57C52.2656 282.672 52.4375 282.723 52.6914 282.723C52.8789 282.723 53.0449 282.709 53.1895 282.682V283.965C52.8574 284.066 52.5156 284.117 52.1641 284.117C50.9766 284.117 50.3711 283.518 50.3477 282.318V278.902H49.4219V277.66H50.3477V276.102H52.041ZM55.8555 284H54.1562V277.66H55.8555V284ZM54.0566 276.02C54.0566 275.766 54.1406 275.557 54.3086 275.393C54.4805 275.229 54.7129 275.146 55.0059 275.146C55.2949 275.146 55.5254 275.229 55.6973 275.393C55.8691 275.557 55.9551 275.766 55.9551 276.02C55.9551 276.277 55.8672 276.488 55.6914 276.652C55.5195 276.816 55.291 276.898 55.0059 276.898C54.7207 276.898 54.4902 276.816 54.3145 276.652C54.1426 276.488 54.0566 276.277 54.0566 276.02ZM58.8145 277.66L58.8672 278.393C59.3203 277.826 59.9277 277.543 60.6895 277.543C61.3613 277.543 61.8613 277.74 62.1895 278.135C62.5176 278.529 62.6855 279.119 62.6934 279.904V284H61V279.945C61 279.586 60.9219 279.326 60.7656 279.166C60.6094 279.002 60.3496 278.92 59.9863 278.92C59.5098 278.92 59.1523 279.123 58.9141 279.529V284H57.2207V277.66H58.8145ZM67.7793 283.355C67.3613 283.863 66.7832 284.117 66.0449 284.117C65.3652 284.117 64.8457 283.922 64.4863 283.531C64.1309 283.141 63.9492 282.568 63.9414 281.814V277.66H65.6348V281.756C65.6348 282.416 65.9355 282.746 66.5371 282.746C67.1113 282.746 67.5059 282.547 67.7207 282.148V277.66H69.4199V284H67.8262L67.7793 283.355ZM73.6152 284.117C72.6855 284.117 71.9277 283.832 71.3418 283.262C70.7598 282.691 70.4688 281.932 70.4688 280.982V280.818C70.4688 280.182 70.5918 279.613 70.8379 279.113C71.084 278.609 71.4316 278.223 71.8809 277.953C72.334 277.68 72.8496 277.543 73.4277 277.543C74.2949 277.543 74.9766 277.816 75.4727 278.363C75.9727 278.91 76.2227 279.686 76.2227 280.689V281.381H72.1855C72.2402 281.795 72.4043 282.127 72.6777 282.377C72.9551 282.627 73.3047 282.752 73.7266 282.752C74.3789 282.752 74.8887 282.516 75.2559 282.043L76.0879 282.975C75.834 283.334 75.4902 283.615 75.0566 283.818C74.623 284.018 74.1426 284.117 73.6152 284.117ZM73.4219 278.914C73.0859 278.914 72.8125 279.027 72.6016 279.254C72.3945 279.48 72.2617 279.805 72.2031 280.227H74.5586V280.092C74.5508 279.717 74.4492 279.428 74.2539 279.225C74.0586 279.018 73.7812 278.914 73.4219 278.914Z" fill="#1554F6"/>
<path d="M19.7031 104.312L21.4785 100.469H23.4004L20.5996 105.906V109H18.8125V105.906L16.0117 100.469H17.9395L19.7031 104.312ZM23.418 105.771C23.418 105.143 23.5391 104.582 23.7812 104.09C24.0234 103.598 24.3711 103.217 24.8242 102.947C25.2812 102.678 25.8105 102.543 26.4121 102.543C27.2676 102.543 27.9648 102.805 28.5039 103.328C29.0469 103.852 29.3496 104.562 29.4121 105.461L29.4238 105.895C29.4238 106.867 29.1523 107.648 28.6094 108.238C28.0664 108.824 27.3379 109.117 26.4238 109.117C25.5098 109.117 24.7793 108.824 24.2324 108.238C23.6895 107.652 23.418 106.855 23.418 105.848V105.771ZM25.1113 105.895C25.1113 106.496 25.2246 106.957 25.4512 107.277C25.6777 107.594 26.002 107.752 26.4238 107.752C26.834 107.752 27.1543 107.596 27.3848 107.283C27.6152 106.967 27.7305 106.463 27.7305 105.771C27.7305 105.182 27.6152 104.725 27.3848 104.4C27.1543 104.076 26.8301 103.914 26.4121 103.914C25.998 103.914 25.6777 104.076 25.4512 104.4C25.2246 104.721 25.1113 105.219 25.1113 105.895ZM34.2637 108.355C33.8457 108.863 33.2676 109.117 32.5293 109.117C31.8496 109.117 31.3301 108.922 30.9707 108.531C30.6152 108.141 30.4336 107.568 30.4258 106.814V102.66H32.1191V106.756C32.1191 107.416 32.4199 107.746 33.0215 107.746C33.5957 107.746 33.9902 107.547 34.2051 107.148V102.66H35.9043V109H34.3105L34.2637 108.355ZM45.6836 106.697L46.5156 102.66H48.1504L46.5332 109H45.1152L43.9141 105.01L42.7129 109H41.3008L39.6836 102.66H41.3184L42.1445 106.691L43.3047 102.66H44.5293L45.6836 106.697ZM50.7812 109H49.082V102.66H50.7812V109ZM48.9824 101.02C48.9824 100.766 49.0664 100.557 49.2344 100.393C49.4062 100.229 49.6387 100.146 49.9316 100.146C50.2207 100.146 50.4512 100.229 50.623 100.393C50.7949 100.557 50.8809 100.766 50.8809 101.02C50.8809 101.277 50.793 101.488 50.6172 101.652C50.4453 101.816 50.2168 101.898 49.9316 101.898C49.6465 101.898 49.416 101.816 49.2402 101.652C49.0684 101.488 48.9824 101.277 48.9824 101.02ZM53.9688 109H52.2695V100H53.9688V109ZM57.1562 109H55.457V100H57.1562V109ZM67.2578 105.889C67.2578 106.904 67.041 107.697 66.6074 108.268C66.1738 108.834 65.5684 109.117 64.791 109.117C64.1035 109.117 63.5547 108.854 63.1445 108.326L63.0684 109H61.5449V100H63.2383V103.229C63.6289 102.771 64.1426 102.543 64.7793 102.543C65.5527 102.543 66.1582 102.828 66.5957 103.398C67.0371 103.965 67.2578 104.764 67.2578 105.795V105.889ZM65.5645 105.766C65.5645 105.125 65.4629 104.658 65.2598 104.365C65.0566 104.068 64.7539 103.92 64.3516 103.92C63.8125 103.92 63.4414 104.141 63.2383 104.582V107.084C63.4453 107.529 63.8203 107.752 64.3633 107.752C64.9102 107.752 65.2695 107.482 65.4414 106.943C65.5234 106.686 65.5645 106.293 65.5645 105.766ZM71.8691 104.248C71.6387 104.217 71.4355 104.201 71.2598 104.201C70.6191 104.201 70.1992 104.418 70 104.852V109H68.3066V102.66H69.9062L69.9531 103.416C70.293 102.834 70.7637 102.543 71.3652 102.543C71.5527 102.543 71.7285 102.568 71.8926 102.619L71.8691 104.248ZM72.2148 105.771C72.2148 105.143 72.3359 104.582 72.5781 104.09C72.8203 103.598 73.168 103.217 73.6211 102.947C74.0781 102.678 74.6074 102.543 75.209 102.543C76.0645 102.543 76.7617 102.805 77.3008 103.328C77.8438 103.852 78.1465 104.562 78.209 105.461L78.2207 105.895C78.2207 106.867 77.9492 107.648 77.4062 108.238C76.8633 108.824 76.1348 109.117 75.2207 109.117C74.3066 109.117 73.5762 108.824 73.0293 108.238C72.4863 107.652 72.2148 106.855 72.2148 105.848V105.771ZM73.9082 105.895C73.9082 106.496 74.0215 106.957 74.248 107.277C74.4746 107.594 74.7988 107.752 75.2207 107.752C75.6309 107.752 75.9512 107.596 76.1816 107.283C76.4121 106.967 76.5273 106.463 76.5273 105.771C76.5273 105.182 76.4121 104.725 76.1816 104.4C75.9512 104.076 75.627 103.914 75.209 103.914C74.7949 103.914 74.4746 104.076 74.248 104.4C74.0215 104.721 73.9082 105.219 73.9082 105.895ZM83.0605 108.355C82.6426 108.863 82.0645 109.117 81.3262 109.117C80.6465 109.117 80.127 108.922 79.7676 108.531C79.4121 108.141 79.2305 107.568 79.2227 106.814V102.66H80.916V106.756C80.916 107.416 81.2168 107.746 81.8184 107.746C82.3926 107.746 82.7871 107.547 83.002 107.148V102.66H84.7012V109H83.1074L83.0605 108.355ZM85.7324 105.783C85.7324 104.811 85.9629 104.027 86.4238 103.434C86.8887 102.84 87.5137 102.543 88.2988 102.543C88.9941 102.543 89.5352 102.781 89.9219 103.258L89.9922 102.66H91.5273V108.789C91.5273 109.344 91.4004 109.826 91.1465 110.236C90.8965 110.646 90.543 110.959 90.0859 111.174C89.6289 111.389 89.0938 111.496 88.4805 111.496C88.0156 111.496 87.5625 111.402 87.1211 111.215C86.6797 111.031 86.3457 110.793 86.1191 110.5L86.8691 109.469C87.291 109.941 87.8027 110.178 88.4043 110.178C88.8535 110.178 89.2031 110.057 89.4531 109.814C89.7031 109.576 89.8281 109.236 89.8281 108.795V108.455C89.4375 108.896 88.9238 109.117 88.2871 109.117C87.5254 109.117 86.9082 108.82 86.4355 108.227C85.9668 107.629 85.7324 106.838 85.7324 105.854V105.783ZM87.4258 105.906C87.4258 106.48 87.541 106.932 87.7715 107.26C88.002 107.584 88.3184 107.746 88.7207 107.746C89.2363 107.746 89.6055 107.553 89.8281 107.166V104.5C89.6016 104.113 89.2363 103.92 88.7324 103.92C88.3262 103.92 88.0059 104.086 87.7715 104.418C87.541 104.75 87.4258 105.246 87.4258 105.906ZM94.4863 103.352C94.9355 102.812 95.5 102.543 96.1797 102.543C97.5547 102.543 98.252 103.342 98.2715 104.939V109H96.5781V104.986C96.5781 104.623 96.5 104.355 96.3438 104.184C96.1875 104.008 95.9277 103.92 95.5645 103.92C95.0684 103.92 94.709 104.111 94.4863 104.494V109H92.793V100H94.4863V103.352ZM101.576 101.102V102.66H102.66V103.902H101.576V107.066C101.576 107.301 101.621 107.469 101.711 107.57C101.801 107.672 101.973 107.723 102.227 107.723C102.414 107.723 102.58 107.709 102.725 107.682V108.965C102.393 109.066 102.051 109.117 101.699 109.117C100.512 109.117 99.9062 108.518 99.8828 107.318V103.902H98.957V102.66H99.8828V101.102H101.576ZM108.619 101.102V102.66H109.703V103.902H108.619V107.066C108.619 107.301 108.664 107.469 108.754 107.57C108.844 107.672 109.016 107.723 109.27 107.723C109.457 107.723 109.623 107.709 109.768 107.682V108.965C109.436 109.066 109.094 109.117 108.742 109.117C107.555 109.117 106.949 108.518 106.926 107.318V103.902H106V102.66H106.926V101.102H108.619ZM110.207 105.771C110.207 105.143 110.328 104.582 110.57 104.09C110.812 103.598 111.16 103.217 111.613 102.947C112.07 102.678 112.6 102.543 113.201 102.543C114.057 102.543 114.754 102.805 115.293 103.328C115.836 103.852 116.139 104.562 116.201 105.461L116.213 105.895C116.213 106.867 115.941 107.648 115.398 108.238C114.855 108.824 114.127 109.117 113.213 109.117C112.299 109.117 111.568 108.824 111.021 108.238C110.479 107.652 110.207 106.855 110.207 105.848V105.771ZM111.9 105.895C111.9 106.496 112.014 106.957 112.24 107.277C112.467 107.594 112.791 107.752 113.213 107.752C113.623 107.752 113.943 107.596 114.174 107.283C114.404 106.967 114.52 106.463 114.52 105.771C114.52 105.182 114.404 104.725 114.174 104.4C113.943 104.076 113.619 103.914 113.201 103.914C112.787 103.914 112.467 104.076 112.24 104.4C112.014 104.721 111.9 105.219 111.9 105.895ZM122.271 101.102V102.66H123.355V103.902H122.271V107.066C122.271 107.301 122.316 107.469 122.406 107.57C122.496 107.672 122.668 107.723 122.922 107.723C123.109 107.723 123.275 107.709 123.42 107.682V108.965C123.088 109.066 122.746 109.117 122.395 109.117C121.207 109.117 120.602 108.518 120.578 107.318V103.902H119.652V102.66H120.578V101.102H122.271ZM125.951 103.352C126.4 102.812 126.965 102.543 127.645 102.543C129.02 102.543 129.717 103.342 129.736 104.939V109H128.043V104.986C128.043 104.623 127.965 104.355 127.809 104.184C127.652 104.008 127.393 103.92 127.029 103.92C126.533 103.92 126.174 104.111 125.951 104.494V109H124.258V100H125.951V103.352ZM133.932 109.117C133.002 109.117 132.244 108.832 131.658 108.262C131.076 107.691 130.785 106.932 130.785 105.982V105.818C130.785 105.182 130.908 104.613 131.154 104.113C131.4 103.609 131.748 103.223 132.197 102.953C132.65 102.68 133.166 102.543 133.744 102.543C134.611 102.543 135.293 102.816 135.789 103.363C136.289 103.91 136.539 104.686 136.539 105.689V106.381H132.502C132.557 106.795 132.721 107.127 132.994 107.377C133.271 107.627 133.621 107.752 134.043 107.752C134.695 107.752 135.205 107.516 135.572 107.043L136.404 107.975C136.15 108.334 135.807 108.615 135.373 108.818C134.939 109.018 134.459 109.117 133.932 109.117ZM133.738 103.914C133.402 103.914 133.129 104.027 132.918 104.254C132.711 104.48 132.578 104.805 132.52 105.227H134.875V105.092C134.867 104.717 134.766 104.428 134.57 104.225C134.375 104.018 134.098 103.914 133.738 103.914ZM142.053 102.66L142.105 103.393C142.559 102.826 143.166 102.543 143.928 102.543C144.6 102.543 145.1 102.74 145.428 103.135C145.756 103.529 145.924 104.119 145.932 104.904V109H144.238V104.945C144.238 104.586 144.16 104.326 144.004 104.166C143.848 104.002 143.588 103.92 143.225 103.92C142.748 103.92 142.391 104.123 142.152 104.529V109H140.459V102.66H142.053ZM150.139 109.117C149.209 109.117 148.451 108.832 147.865 108.262C147.283 107.691 146.992 106.932 146.992 105.982V105.818C146.992 105.182 147.115 104.613 147.361 104.113C147.607 103.609 147.955 103.223 148.404 102.953C148.857 102.68 149.373 102.543 149.951 102.543C150.818 102.543 151.5 102.816 151.996 103.363C152.496 103.91 152.746 104.686 152.746 105.689V106.381H148.709C148.764 106.795 148.928 107.127 149.201 107.377C149.479 107.627 149.828 107.752 150.25 107.752C150.902 107.752 151.412 107.516 151.779 107.043L152.611 107.975C152.357 108.334 152.014 108.615 151.58 108.818C151.146 109.018 150.666 109.117 150.139 109.117ZM149.945 103.914C149.609 103.914 149.336 104.027 149.125 104.254C148.918 104.48 148.785 104.805 148.727 105.227H151.082V105.092C151.074 104.717 150.973 104.428 150.777 104.225C150.582 104.018 150.305 103.914 149.945 103.914ZM156.127 104.553L157.193 102.66H159.004L157.199 105.766L159.08 109H157.264L156.133 107.008L155.008 109H153.186L155.066 105.766L153.268 102.66H155.084L156.127 104.553ZM161.846 101.102V102.66H162.93V103.902H161.846V107.066C161.846 107.301 161.891 107.469 161.98 107.57C162.07 107.672 162.242 107.723 162.496 107.723C162.684 107.723 162.85 107.709 162.994 107.682V108.965C162.662 109.066 162.32 109.117 161.969 109.117C160.781 109.117 160.176 108.518 160.152 107.318V103.902H159.227V102.66H160.152V101.102H161.846ZM172.568 105.889C172.568 106.865 172.346 107.648 171.9 108.238C171.459 108.824 170.861 109.117 170.107 109.117C169.467 109.117 168.949 108.895 168.555 108.449V111.438H166.861V102.66H168.432L168.49 103.281C168.9 102.789 169.436 102.543 170.096 102.543C170.877 102.543 171.484 102.832 171.918 103.41C172.352 103.988 172.568 104.785 172.568 105.801V105.889ZM170.875 105.766C170.875 105.176 170.77 104.721 170.559 104.4C170.352 104.08 170.049 103.92 169.65 103.92C169.119 103.92 168.754 104.123 168.555 104.529V107.125C168.762 107.543 169.131 107.752 169.662 107.752C170.471 107.752 170.875 107.09 170.875 105.766ZM177.297 109C177.219 108.848 177.162 108.658 177.127 108.432C176.717 108.889 176.184 109.117 175.527 109.117C174.906 109.117 174.391 108.938 173.98 108.578C173.574 108.219 173.371 107.766 173.371 107.219C173.371 106.547 173.619 106.031 174.115 105.672C174.615 105.312 175.336 105.131 176.277 105.127H177.057V104.764C177.057 104.471 176.98 104.236 176.828 104.061C176.68 103.885 176.443 103.797 176.119 103.797C175.834 103.797 175.609 103.865 175.445 104.002C175.285 104.139 175.205 104.326 175.205 104.564H173.512C173.512 104.197 173.625 103.857 173.852 103.545C174.078 103.232 174.398 102.988 174.812 102.812C175.227 102.633 175.691 102.543 176.207 102.543C176.988 102.543 177.607 102.74 178.064 103.135C178.525 103.525 178.756 104.076 178.756 104.787V107.535C178.76 108.137 178.844 108.592 179.008 108.9V109H177.297ZM175.896 107.822C176.146 107.822 176.377 107.768 176.588 107.658C176.799 107.545 176.955 107.395 177.057 107.207V106.117H176.424C175.576 106.117 175.125 106.41 175.07 106.996L175.064 107.096C175.064 107.307 175.139 107.48 175.287 107.617C175.436 107.754 175.639 107.822 175.896 107.822ZM179.811 105.783C179.811 104.811 180.041 104.027 180.502 103.434C180.967 102.84 181.592 102.543 182.377 102.543C183.072 102.543 183.613 102.781 184 103.258L184.07 102.66H185.605V108.789C185.605 109.344 185.479 109.826 185.225 110.236C184.975 110.646 184.621 110.959 184.164 111.174C183.707 111.389 183.172 111.496 182.559 111.496C182.094 111.496 181.641 111.402 181.199 111.215C180.758 111.031 180.424 110.793 180.197 110.5L180.947 109.469C181.369 109.941 181.881 110.178 182.482 110.178C182.932 110.178 183.281 110.057 183.531 109.814C183.781 109.576 183.906 109.236 183.906 108.795V108.455C183.516 108.896 183.002 109.117 182.365 109.117C181.604 109.117 180.986 108.82 180.514 108.227C180.045 107.629 179.811 106.838 179.811 105.854V105.783ZM181.504 105.906C181.504 106.48 181.619 106.932 181.85 107.26C182.08 107.584 182.396 107.746 182.799 107.746C183.314 107.746 183.684 107.553 183.906 107.166V104.5C183.68 104.113 183.314 103.92 182.811 103.92C182.404 103.92 182.084 104.086 181.85 104.418C181.619 104.75 181.504 105.246 181.504 105.906ZM189.83 109.117C188.9 109.117 188.143 108.832 187.557 108.262C186.975 107.691 186.684 106.932 186.684 105.982V105.818C186.684 105.182 186.807 104.613 187.053 104.113C187.299 103.609 187.646 103.223 188.096 102.953C188.549 102.68 189.064 102.543 189.643 102.543C190.51 102.543 191.191 102.816 191.688 103.363C192.188 103.91 192.438 104.686 192.438 105.689V106.381H188.4C188.455 106.795 188.619 107.127 188.893 107.377C189.17 107.627 189.52 107.752 189.941 107.752C190.594 107.752 191.104 107.516 191.471 107.043L192.303 107.975C192.049 108.334 191.705 108.615 191.271 108.818C190.838 109.018 190.357 109.117 189.83 109.117ZM189.637 103.914C189.301 103.914 189.027 104.027 188.816 104.254C188.609 104.48 188.477 104.805 188.418 105.227H190.773V105.092C190.766 104.717 190.664 104.428 190.469 104.225C190.273 104.018 189.996 103.914 189.637 103.914ZM193.492 108.168C193.492 107.898 193.582 107.68 193.762 107.512C193.945 107.344 194.174 107.26 194.447 107.26C194.725 107.26 194.953 107.344 195.133 107.512C195.316 107.68 195.408 107.898 195.408 108.168C195.408 108.434 195.318 108.65 195.139 108.818C194.959 108.982 194.729 109.064 194.447 109.064C194.17 109.064 193.941 108.982 193.762 108.818C193.582 108.65 193.492 108.434 193.492 108.168ZM23.4062 120.539L24.5547 114.469H26.3066L24.4141 123H22.6445L21.2559 117.293L19.8672 123H18.0977L16.2051 114.469H17.957L19.1113 120.527L20.5176 114.469H22.0059L23.4062 120.539ZM28.8027 117.352C29.252 116.812 29.8164 116.543 30.4961 116.543C31.8711 116.543 32.5684 117.342 32.5879 118.939V123H30.8945V118.986C30.8945 118.623 30.8164 118.355 30.6602 118.184C30.5039 118.008 30.2441 117.92 29.8809 117.92C29.3848 117.92 29.0254 118.111 28.8027 118.494V123H27.1094V114H28.8027V117.352ZM37.5391 123C37.4609 122.848 37.4043 122.658 37.3691 122.432C36.959 122.889 36.4258 123.117 35.7695 123.117C35.1484 123.117 34.6328 122.938 34.2227 122.578C33.8164 122.219 33.6133 121.766 33.6133 121.219C33.6133 120.547 33.8613 120.031 34.3574 119.672C34.8574 119.312 35.5781 119.131 36.5195 119.127H37.2988V118.764C37.2988 118.471 37.2227 118.236 37.0703 118.061C36.9219 117.885 36.6855 117.797 36.3613 117.797C36.0762 117.797 35.8516 117.865 35.6875 118.002C35.5273 118.139 35.4473 118.326 35.4473 118.564H33.7539C33.7539 118.197 33.8672 117.857 34.0938 117.545C34.3203 117.232 34.6406 116.988 35.0547 116.812C35.4688 116.633 35.9336 116.543 36.4492 116.543C37.2305 116.543 37.8496 116.74 38.3066 117.135C38.7676 117.525 38.998 118.076 38.998 118.787V121.535C39.002 122.137 39.0859 122.592 39.25 122.9V123H37.5391ZM36.1387 121.822C36.3887 121.822 36.6191 121.768 36.8301 121.658C37.041 121.545 37.1973 121.395 37.2988 121.207V120.117H36.666C35.8184 120.117 35.3672 120.41 35.3125 120.996L35.3066 121.096C35.3066 121.307 35.3809 121.48 35.5293 121.617C35.6777 121.754 35.8809 121.822 36.1387 121.822ZM42.3262 115.102V116.66H43.4102V117.902H42.3262V121.066C42.3262 121.301 42.3711 121.469 42.4609 121.57C42.5508 121.672 42.7227 121.723 42.9766 121.723C43.1641 121.723 43.3301 121.709 43.4746 121.682V122.965C43.1426 123.066 42.8008 123.117 42.4492 123.117C41.2617 123.117 40.6562 122.518 40.6328 121.318V117.902H39.707V116.66H40.6328V115.102H42.3262ZM52.8555 120.697L53.6875 116.66H55.3223L53.7051 123H52.2871L51.0859 119.01L49.8848 123H48.4727L46.8555 116.66H48.4902L49.3164 120.691L50.4766 116.66H51.7012L52.8555 120.697ZM57.9531 123H56.2539V116.66H57.9531V123ZM56.1543 115.02C56.1543 114.766 56.2383 114.557 56.4062 114.393C56.5781 114.229 56.8105 114.146 57.1035 114.146C57.3926 114.146 57.623 114.229 57.7949 114.393C57.9668 114.557 58.0527 114.766 58.0527 115.02C58.0527 115.277 57.9648 115.488 57.7891 115.652C57.6172 115.816 57.3887 115.898 57.1035 115.898C56.8184 115.898 56.5879 115.816 56.4121 115.652C56.2402 115.488 56.1543 115.277 56.1543 115.02ZM61.1406 123H59.4414V114H61.1406V123ZM64.3281 123H62.6289V114H64.3281V123ZM71.084 120.604L72.2559 116.66H74.0723L71.5234 123.984L71.3828 124.318C71.0039 125.146 70.3789 125.561 69.5078 125.561C69.2617 125.561 69.0117 125.523 68.7578 125.449V124.166L69.0156 124.172C69.3359 124.172 69.5742 124.123 69.7305 124.025C69.8906 123.928 70.0156 123.766 70.1055 123.539L70.3047 123.018L68.084 116.66H69.9062L71.084 120.604ZM74.3828 119.771C74.3828 119.143 74.5039 118.582 74.7461 118.09C74.9883 117.598 75.3359 117.217 75.7891 116.947C76.2461 116.678 76.7754 116.543 77.377 116.543C78.2324 116.543 78.9297 116.805 79.4688 117.328C80.0117 117.852 80.3145 118.562 80.377 119.461L80.3887 119.895C80.3887 120.867 80.1172 121.648 79.5742 122.238C79.0312 122.824 78.3027 123.117 77.3887 123.117C76.4746 123.117 75.7441 122.824 75.1973 122.238C74.6543 121.652 74.3828 120.855 74.3828 119.848V119.771ZM76.0762 119.895C76.0762 120.496 76.1895 120.957 76.416 121.277C76.6426 121.594 76.9668 121.752 77.3887 121.752C77.7988 121.752 78.1191 121.596 78.3496 121.283C78.5801 120.967 78.6953 120.463 78.6953 119.771C78.6953 119.182 78.5801 118.725 78.3496 118.4C78.1191 118.076 77.7949 117.914 77.377 117.914C76.9629 117.914 76.6426 118.076 76.416 118.4C76.1895 118.721 76.0762 119.219 76.0762 119.895ZM85.2285 122.355C84.8105 122.863 84.2324 123.117 83.4941 123.117C82.8145 123.117 82.2949 122.922 81.9355 122.531C81.5801 122.141 81.3984 121.568 81.3906 120.814V116.66H83.084V120.756C83.084 121.416 83.3848 121.746 83.9863 121.746C84.5605 121.746 84.9551 121.547 85.1699 121.148V116.66H86.8691V123H85.2754L85.2285 122.355ZM92.9219 123H91.2227V114H92.9219V123ZM96.1094 123H94.4102V116.66H96.1094V123ZM94.3105 115.02C94.3105 114.766 94.3945 114.557 94.5625 114.393C94.7344 114.229 94.9668 114.146 95.2598 114.146C95.5488 114.146 95.7793 114.229 95.9512 114.393C96.123 114.557 96.209 114.766 96.209 115.02C96.209 115.277 96.1211 115.488 95.9453 115.652C95.7734 115.816 95.5449 115.898 95.2598 115.898C94.9746 115.898 94.7441 115.816 94.5684 115.652C94.3965 115.488 94.3105 115.277 94.3105 115.02ZM99.8125 120.457L99.2031 121.066V123H97.5098V114H99.2031V118.986L99.5312 118.564L101.154 116.66H103.188L100.896 119.303L103.387 123H101.441L99.8125 120.457ZM106.721 123.117C105.791 123.117 105.033 122.832 104.447 122.262C103.865 121.691 103.574 120.932 103.574 119.982V119.818C103.574 119.182 103.697 118.613 103.943 118.113C104.189 117.609 104.537 117.223 104.986 116.953C105.439 116.68 105.955 116.543 106.533 116.543C107.4 116.543 108.082 116.816 108.578 117.363C109.078 117.91 109.328 118.686 109.328 119.689V120.381H105.291C105.346 120.795 105.51 121.127 105.783 121.377C106.061 121.627 106.41 121.752 106.832 121.752C107.484 121.752 107.994 121.516 108.361 121.043L109.193 121.975C108.939 122.334 108.596 122.615 108.162 122.818C107.729 123.018 107.248 123.117 106.721 123.117ZM106.527 117.914C106.191 117.914 105.918 118.027 105.707 118.254C105.5 118.48 105.367 118.805 105.309 119.227H107.664V119.092C107.656 118.717 107.555 118.428 107.359 118.225C107.164 118.018 106.887 117.914 106.527 117.914ZM115.311 115.102V116.66H116.395V117.902H115.311V121.066C115.311 121.301 115.355 121.469 115.445 121.57C115.535 121.672 115.707 121.723 115.961 121.723C116.148 121.723 116.314 121.709 116.459 121.682V122.965C116.127 123.066 115.785 123.117 115.434 123.117C114.246 123.117 113.641 122.518 113.617 121.318V117.902H112.691V116.66H113.617V115.102H115.311ZM116.898 119.771C116.898 119.143 117.02 118.582 117.262 118.09C117.504 117.598 117.852 117.217 118.305 116.947C118.762 116.678 119.291 116.543 119.893 116.543C120.748 116.543 121.445 116.805 121.984 117.328C122.527 117.852 122.83 118.562 122.893 119.461L122.904 119.895C122.904 120.867 122.633 121.648 122.09 122.238C121.547 122.824 120.818 123.117 119.904 123.117C118.99 123.117 118.26 122.824 117.713 122.238C117.17 121.652 116.898 120.855 116.898 119.848V119.771ZM118.592 119.895C118.592 120.496 118.705 120.957 118.932 121.277C119.158 121.594 119.482 121.752 119.904 121.752C120.314 121.752 120.635 121.596 120.865 121.283C121.096 120.967 121.211 120.463 121.211 119.771C121.211 119.182 121.096 118.725 120.865 118.4C120.635 118.076 120.311 117.914 119.893 117.914C119.479 117.914 119.158 118.076 118.932 118.4C118.705 118.721 118.592 119.219 118.592 119.895ZM126.672 119.783C126.672 118.795 126.893 118.008 127.334 117.422C127.779 116.836 128.387 116.543 129.156 116.543C129.773 116.543 130.283 116.773 130.686 117.234V114H132.385V123H130.855L130.773 122.326C130.352 122.854 129.809 123.117 129.145 123.117C128.398 123.117 127.799 122.824 127.346 122.238C126.896 121.648 126.672 120.83 126.672 119.783ZM128.365 119.906C128.365 120.5 128.469 120.955 128.676 121.271C128.883 121.588 129.184 121.746 129.578 121.746C130.102 121.746 130.471 121.525 130.686 121.084V118.582C130.475 118.141 130.109 117.92 129.59 117.92C128.773 117.92 128.365 118.582 128.365 119.906ZM133.434 119.771C133.434 119.143 133.555 118.582 133.797 118.09C134.039 117.598 134.387 117.217 134.84 116.947C135.297 116.678 135.826 116.543 136.428 116.543C137.283 116.543 137.98 116.805 138.52 117.328C139.062 117.852 139.365 118.562 139.428 119.461L139.439 119.895C139.439 120.867 139.168 121.648 138.625 122.238C138.082 122.824 137.354 123.117 136.439 123.117C135.525 123.117 134.795 122.824 134.248 122.238C133.705 121.652 133.434 120.855 133.434 119.848V119.771ZM135.127 119.895C135.127 120.496 135.24 120.957 135.467 121.277C135.693 121.594 136.018 121.752 136.439 121.752C136.85 121.752 137.17 121.596 137.4 121.283C137.631 120.967 137.746 120.463 137.746 119.771C137.746 119.182 137.631 118.725 137.4 118.4C137.17 118.076 136.846 117.914 136.428 117.914C136.014 117.914 135.693 118.076 135.467 118.4C135.24 118.721 135.127 119.219 135.127 119.895ZM141.865 120.381C141.865 119.834 141.932 119.398 142.064 119.074C142.197 118.75 142.439 118.432 142.791 118.119C143.146 117.803 143.383 117.547 143.5 117.352C143.617 117.152 143.676 116.943 143.676 116.725C143.676 116.064 143.371 115.734 142.762 115.734C142.473 115.734 142.24 115.824 142.064 116.004C141.893 116.18 141.803 116.424 141.795 116.736H140.096C140.104 115.99 140.344 115.406 140.816 114.984C141.293 114.562 141.941 114.352 142.762 114.352C143.59 114.352 144.232 114.553 144.689 114.955C145.146 115.354 145.375 115.918 145.375 116.648C145.375 116.98 145.301 117.295 145.152 117.592C145.004 117.885 144.744 118.211 144.373 118.57L143.898 119.021C143.602 119.307 143.432 119.641 143.389 120.023L143.365 120.381H141.865ZM141.695 122.18C141.695 121.918 141.783 121.703 141.959 121.535C142.139 121.363 142.367 121.277 142.645 121.277C142.922 121.277 143.148 121.363 143.324 121.535C143.504 121.703 143.594 121.918 143.594 122.18C143.594 122.438 143.506 122.65 143.33 122.818C143.158 122.986 142.93 123.07 142.645 123.07C142.359 123.07 142.129 122.986 141.953 122.818C141.781 122.65 141.695 122.438 141.695 122.18Z" fill="black"/>
</g>
<defs>
<filter id="filter0_d" x="0" y="0" width="352" height="312" filterUnits="userSpaceOnUse" color-interpolation-filters="sRGB">
<feFlood flood-opacity="0" result="BackgroundImageFix"/>
<feColorMatrix in="SourceAlpha" type="matrix" values="0 0 0 0 0 0 0 0 0 0 0 0 0 0 0 0 0 0 127 0"/>
<feOffset dy="2"/>
<feGaussianBlur stdDeviation="2"/>
<feColorMatrix type="matrix" values="0 0 0 0 0 0 0 0 0 0 0 0 0 0 0 0 0 0 0.25 0"/>
<feBlend mode="normal" in2="BackgroundImageFix" result="effect1_dropShadow"/>
<feBlend mode="normal" in="SourceGraphic" in2="effect1_dropShadow" result="shape"/>
</filter>
</defs>
</svg>
